<?xml version="1.0"?>
<svg xmlns="http://www.w3.org/2000/svg" xmlns:xlink="http://www.w3.org/1999/xlink" version="1.1" id="Layer_1" x="0px" y="0px" viewBox="0 0 496.002 496.002" style="enable-background:new 0 0 496.002 496.002;" xml:space="preserve" width="512px" height="512px"><g><g>
	<g>
		<g>
			<path d="M495.84,129.345C492.488,59.057,434.728,2.265,364.352,0.073c-42.2-1.32-82.288,16.928-109.032,49.144     c-0.264-0.16-0.504-0.352-0.776-0.512c-8.016-4.536-17.136-5.664-25.672-3.384l-2.344-7.032     c-7.64-22.896-28.984-38.288-53.128-38.288H128c-48.52,0-88,39.48-88,88v96c0,33.16,18.456,62.08,45.616,77.08     C36.16,275.905,0,321.785,0,376.001v120h16v-120c0-43.728,27.16-81.168,65.472-96.512l18.496,83.232l27.648-36.872l7.952,11.936     l-16.096,92.568L152,468.289l32.528-37.944l-16.096-92.568l7.952-11.936l27.648,36.872l18.496-83.232     C260.84,294.833,288,332.273,288,376.001v120h16v-120c0-52.448-33.872-97.024-80.84-113.312     c15.448-7.72,28.304-19.816,36.944-34.704c18.4,20,41.92,33.896,67.904,40.152v19.864h-16v16h16v128c0,17.648,14.352,32,32,32     s32-14.352,32-32v-128h16v-16h-16v-19.904c25.136-6.024,48.08-19.008,66.44-38.264C484.36,202.665,497.64,166.977,495.84,129.345     z M118.12,311.593l0.088,0.136l-10.176,13.552l-11.24-50.576c7.48-1.712,15.224-2.704,23.208-2.704h3.056l10.232,20.456     L118.12,311.593z M152,443.713l-15.472-18.056l14.2-81.656h2.536l14.2,81.656L152,443.713z M144.552,304.001h14.888l6.664,8.408     l-10.384,15.592h-7.44l-10.392-15.592L144.552,304.001z M140.944,272.001h22.112l-8,16h-6.112L140.944,272.001z M195.968,325.281     L185.8,311.729l0.088-0.136l-15.168-19.136l10.224-20.456H184c7.984,0,15.728,0.992,23.208,2.704L195.968,325.281z M256,184.001     c0,39.704-32.304,72-72,72h-56c-39.696,0-72-32.296-72-72v-16h16c0,17.648,14.352,32,32,32c15.968,0,29.128-11.792,31.504-27.104     c11.92-6.56,26.424-6.984,38.72-0.84l2.304,1.152c2.504,15.168,15.608,26.792,31.472,26.792c17.648,0,32-14.352,32-32h16V184.001     z M88,168.001c0-8.824,7.176-16,16-16s16,7.176,16,16c0,8.824-7.176,16-16,16S88,176.825,88,168.001z M192,168.001     c0-8.824,7.176-16,16-16c8.824,0,16,7.176,16,16c0,8.824-7.176,16-16,16C199.176,184.001,192,176.825,192,168.001z M256,152.001     h-20.448c-5.552-9.52-15.76-16-27.552-16c-13.552,0-25.096,8.504-29.752,20.432c-14.304-6.12-30.376-6.144-44.592-0.312     c-4.728-11.768-16.216-20.12-29.656-20.12c-11.792,0-22,6.48-27.552,16H56v-11.72l24.288-16.184     c11.864-7.92,25.672-12.096,39.936-12.096h37.288c13.296,0,26.296-2.496,38.624-7.44l16-6.4l3.864,7.728     c6.824,13.64,20.528,22.112,35.776,22.112H256V152.001z M256,112.001h-4.224c-9.152,0-17.376-5.088-21.464-13.264l-10.448-20.896     l-29.672,11.864c-10.432,4.176-21.432,6.296-32.68,6.296h-37.288c-17.44,0-34.32,5.112-48.816,14.784L56,121.057V88.001     c0-39.704,32.304-72,72-72h45.4c17.24,0,32.496,10.992,37.944,27.352l8.216,24.64l8.552-5.136     c5.768-3.456,12.688-3.544,18.544-0.232c5.848,3.312,9.344,9.304,9.344,16.024V112.001z M376,432.001c0,8.824-7.176,16-16,16     c-8.824,0-16-7.176-16-16v-128h32V432.001z M376,288.001h-32v-16.96c5.272,0.616,10.608,0.96,16,0.96c5.4,0,10.728-0.4,16-1.008     V288.001z M446.864,218.793c-22.872,24-53.72,37.208-86.864,37.208c-36.112,0-69.768-16.008-92.688-43.888     c2.312-6.832,3.792-14.024,4.352-21.488c18.36,29.576,51.04,49.376,88.336,49.376c14.872,0,29.248-3.08,42.72-9.152     l-6.576-14.592c-11.392,5.144-23.552,7.744-36.144,7.744c-48.52,0-88-39.48-88-88s39.48-88,88-88c48.52,0,88,39.48,88,88     c0,28.184-13.664,54.88-36.56,71.416l9.368,12.968C447.848,200.857,464,169.313,464,136.001c0-57.344-46.656-104-104-104     c-37.072,0-69.584,19.552-88,48.832v-2.184c0-6.64-1.872-12.88-5.208-18.216c23.584-29.064,59.336-45.504,97.056-44.376     c62.088,1.944,113.048,52.048,116.008,114.056C481.44,163.321,469.728,194.817,446.864,218.793z" data-original="#000000" class="active-path" data-old_color="#000000" fill="#9736FD"/>
			<path d="M384,128.001h-48c-8.824,0-16-7.176-16-16c0-8.824,7.176-16,16-16h48c8.824,0,16,7.176,16,16h16     c0-17.648-14.352-32-32-32h-16v-16h-16v16h-16c-17.648,0-32,14.352-32,32s14.352,32,32,32h48c8.824,0,16,7.176,16,16     c0,8.824-7.176,16-16,16h-48c-8.824,0-16-7.176-16-16h-16c0,17.648,14.352,32,32,32h16v16h16v-16h16c17.648,0,32-14.352,32-32     S401.648,128.001,384,128.001z" data-original="#000000" class="active-path" data-old_color="#000000" fill="#9736FD"/>
			<rect x="232" y="416.001" width="16" height="80" data-original="#000000" class="active-path" data-old_color="#000000" fill="#9736FD"/>
			<rect x="232" y="384.001" width="16" height="16" data-original="#000000" class="active-path" data-old_color="#000000" fill="#9736FD"/>
			<rect x="56" y="384.001" width="16" height="112" data-original="#000000" class="active-path" data-old_color="#000000" fill="#9736FD"/>
		</g>
	</g>
</g></g> </svg>
