<?xml version="1.0"?>
<svg xmlns="http://www.w3.org/2000/svg" height="512px" viewBox="-17 -43 553.33328 553" width="512px"><g><path d="m345.417969 305.375c-35.183594 0-69.5625-12.210938-96.792969-34.367188-3.652344-2.976562-4.203125-8.34375-1.234375-11.992187 2.976563-3.664063 8.34375-4.214844 12-1.234375 24.203125 19.699219 54.753906 30.539062 86.027344 30.539062 75.230469 0 136.433593-61.207031 136.433593-136.433593 0-75.230469-61.203124-136.4375-136.433593-136.4375-75.226563 0-136.433594 61.207031-136.433594 136.4375 0 21.554687 4.878906 42.164062 14.496094 61.269531 2.121093 4.214844.425781 9.332031-3.777344 11.460938-4.203125 2.101562-9.339844.414062-11.449219-3.78125-10.828125-21.507813-16.324218-44.703126-16.324218-68.949219 0-84.632813 68.859374-153.492188 153.492187-153.492188s153.488281 68.859375 153.488281 153.492188c0 84.625-68.855468 153.488281-153.492187 153.488281zm0 0" data-original="#000000" class="active-path" data-old_color="#HTTPS:" fill="#9736FD"/><path d="m345.417969 279.792969c-24.148438 0-47.664063-6.765625-68.011719-19.5625-3.984375-2.507813-5.1875-7.777344-2.679688-11.757813 2.519532-3.996094 7.773438-5.183594 11.765626-2.683594 17.625 11.085938 38 16.945313 58.929687 16.945313 61.125 0 110.855469-49.730469 110.855469-110.855469 0-61.121094-49.730469-110.851562-110.855469-110.851562s-110.855469 49.730468-110.855469 110.851562c0 21.601563 6.214844 42.53125 17.964844 60.519532 2.570312 3.949218 1.464844 9.226562-2.476562 11.796874-3.949219 2.574219-9.226563 1.476563-11.804688-2.472656-13.5625-20.765625-20.738281-44.921875-20.738281-69.84375 0-70.527344 57.382812-127.902344 127.910156-127.902344s127.90625 57.375 127.90625 127.902344c0 70.535156-57.378906 127.914063-127.910156 127.914063zm0 0" data-original="#000000" class="active-path" data-old_color="#HTTPS:" fill="#9736FD"/><path d="m379.53125 160.410156h-68.21875c-9.421875 0-17.058594-7.636718-17.058594-17.054687v-51.164063c0-9.414062 7.636719-17.050781 17.058594-17.050781h41.875c23.925781 0 43.394531 19.46875 43.394531 43.398437v24.816407c0 9.417969-7.636719 17.054687-17.050781 17.054687zm-51.164062-34.105468h34.105468v-7.765626c0-5.117187-4.167968-9.289062-9.285156-9.289062h-24.820312zm0 0" data-original="#000000" class="active-path" data-old_color="#HTTPS:" fill="#9736FD"/><path d="m378.386719 211.574219h-67.074219c-9.421875 0-17.058594-7.636719-17.058594-17.054688v-51.164062c0-9.414063 7.636719-17.050781 17.058594-17.050781h85.269531c9.417969 0 17.054688 7.636718 17.054688 17.050781v32.96875c0 19.4375-15.8125 35.25-35.25 35.25zm-50.019531-34.105469h50.019531c.632812 0 1.144531-.507812 1.144531-1.144531v-15.914063h-51.164062zm0 0" data-original="#000000" class="active-path" data-old_color="#HTTPS:" fill="#9736FD"/><path d="m345.417969 100.722656c-9.417969 0-17.050781-7.636718-17.050781-17.054687v-17.058594c0-9.417969 7.632812-17.050781 17.050781-17.050781s17.054687 7.632812 17.054687 17.050781v17.058594c0 9.417969-7.636718 17.054687-17.054687 17.054687zm0 0" data-original="#000000" class="active-path" data-old_color="#HTTPS:" fill="#9736FD"/><path d="m353.949219 237.15625c-9.421875 0-17.058594-7.636719-17.058594-17.054688v-25.582031c0-9.414062 7.636719-17.050781 17.058594-17.050781 9.414062 0 17.050781 7.636719 17.050781 17.050781v25.582031c0 9.417969-7.636719 17.054688-17.050781 17.054688zm0 0" data-original="#000000" class="active-path" data-old_color="#HTTPS:" fill="#9736FD"/><path d="m396.578125 366.695312c-3.902344 0-7.421875-2.703124-8.3125-6.664062-1.03125-4.597656 1.863281-9.160156 6.453125-10.183594l93.75-20.996094c3.761719-.664062 6.699219-2.53125 8.660156-5.328124 1.964844-2.792969 2.71875-6.1875 2.128906-9.546876-.722656-4.136718-3.429687-7.660156-7.246093-9.417968-4.273438-1.976563-6.148438-7.046875-4.167969-11.320313 1.972656-4.277343 7.039062-6.128906 11.316406-4.171875 8.894532 4.109375 15.214844 12.316406 16.898438 21.960938 1.378906 7.851562-.386719 15.769531-4.96875 22.289062-4.578125 6.527344-11.425782 10.875-19.28125 12.261719l-93.351563 20.910156c-.632812.140625-1.265625.207031-1.878906.207031zm0 0" data-original="#000000" class="active-path" data-old_color="#HTTPS:" fill="#9736FD"/><path d="m273.761719 416.226562h-64.777344c-.621094 0-1.238281-.0625-1.847656-.199218l-76.742188-17.054688c-4.597656-1.023437-7.5-5.582031-6.476562-10.179687 1.023437-4.59375 5.582031-7.503907 10.167969-6.472657l75.835937 16.851563h63.839844c33.277343 0 65.917969-11.449219 91.910156-32.242187.230469-.183594.46875-.351563.714844-.507813l126.210937-81.15625c.410156-.269531.839844-.492187 1.285156-.683594 3.144532-1.332031 5.578126-3.816406 6.863282-6.976562 1.285156-3.171875 1.25-6.65625-.082032-9.792969-2.757812-6.5-10.28125-9.539062-16.769531-6.78125l-126.695312 52.226562c-1.03125.425782-2.140625.644532-3.25.644532h-162.019531c-3.074219 0-5.90625-1.648438-7.421876-4.324219-1.511718-2.675781-1.464843-5.960937.113282-8.589844l25.582031-42.636719c1.539063-2.566406 4.3125-4.136718 7.308594-4.136718h34.113281c15.863281 0 29.230469-10.882813 33.027344-25.582032h-89.929688l-116.03125 85.089844c-3.800781 2.796875-9.132812 1.945313-11.917968-1.832031-2.785157-3.804687-1.960938-9.136719 1.832031-11.921875l118.28125-86.742188c1.464843-1.078124 3.230469-1.648437 5.039062-1.648437h102.328125c4.710938 0 8.53125 3.816406 8.53125 8.53125 0 28.210937-22.953125 51.15625-51.164062 51.15625h-29.28125l-15.351563 25.582031h145.265625l125.058594-51.554687c15.070312-6.375 32.625.710937 39.046875 15.859375 3.117187 7.332031 3.1875 15.449218.199219 22.839844-2.886719 7.152343-8.304688 12.796874-15.296875 15.980468l-125.285157 80.5625c-28.949218 23.015625-65.230468 35.691406-102.214843 35.691406zm0 0" data-original="#000000" class="active-path" data-old_color="#HTTPS:" fill="#9736FD"/><path d="m92.261719 464.480469c-.453125 0-.914063-.03125-1.367188-.105469-2.234375-.371094-4.230469-1.601562-5.550781-3.429688l-83.730469-116.152343c-1.324219-1.828125-1.867187-4.121094-1.5-6.351563.359375-2.230468 1.59375-4.230468 3.429688-5.554687l55.328125-39.886719c3.835937-2.734375 9.160156-1.875 11.90625 1.933594l83.730468 116.140625c2.757813 3.820312 1.890626 9.148437-1.929687 11.90625l-55.328125 39.894531c-1.460938 1.050781-3.210938 1.605469-4.988281 1.605469zm-71.828125-122.742188 73.761718 102.308594 41.496094-29.917969-73.757812-102.308594zm0 0" data-original="#000000" class="active-path" data-old_color="#HTTPS:" fill="#9736FD"/><path d="m115.183594 407.695312c0 9.421876-7.636719 17.058594-17.050782 17.058594-9.417968 0-17.054687-7.636718-17.054687-17.058594 0-9.414062 7.636719-17.050781 17.054687-17.050781 9.414063 0 17.050782 7.636719 17.050782 17.050781zm0 0" data-original="#000000" class="active-path" data-old_color="#HTTPS:" fill="#9736FD"/></g> </svg>
