<?xml version="1.0"?>
<svg xmlns="http://www.w3.org/2000/svg" height="512px" viewBox="0 -107 512.00101 512" width="512px" class=""><g><path d="m502.792969 99.082031c5.851562-4.691406 9.207031-11.632812 9.207031-19.046875v-46.175781c0-18.671875-15.1875-33.859375-33.855469-33.859375h-36.730469c-4.191406 0-7.585937 3.394531-7.585937 7.585938 0 4.191406 3.394531 7.585937 7.585937 7.585937h36.730469c10.304688 0 18.6875 8.382813 18.6875 18.6875v46.175781c0 2.785156-1.285156 5.414063-3.523437 7.207032-37.53125 30.070312-37.46875 87.027343 0 117.039062 2.238281 1.792969 3.523437 4.421875 3.523437 7.207031v53.5c0 10.300781-8.382812 18.6875-18.6875 18.6875h-378.402343v-13.128906c0-4.191406-3.394532-7.585937-7.585938-7.585937s-7.585938 3.394531-7.585938 7.585937v13.128906h-50.714843c-8.035157 0-15.15625-5.117187-17.714844-12.726562-1.335937-3.96875-5.636719-6.105469-9.605469-4.769531-3.972656 1.335937-6.109375 5.636718-4.773437 9.605468 4.636719 13.792969 17.535156 23.058594 32.09375 23.058594h444.289062c18.667969 0 33.855469-15.1875 33.855469-33.855469v-53.5c0-7.414062-3.355469-14.359375-9.210938-19.046875-29.945312-23.988281-29.882812-69.414062.003907-93.359375zm0 0" data-original="#000000" class="active-path" data-old_color="#HTTPS:" fill="#9736FD"/><path d="m7.585938 250.761719c4.191406 0 7.585937-3.394531 7.585937-7.585938v-31.6875c0-2.785156 1.285156-5.414062 3.523437-7.207031 37.539063-30.066406 37.457032-87.027344-.003906-117.039062-2.234375-1.796876-3.519531-4.421876-3.519531-7.207032v-46.175781c0-10.304687 8.382813-18.6875 18.683594-18.6875h50.714843v14.664063c0 4.191406 3.394532 7.585937 7.585938 7.585937s7.585938-3.394531 7.585938-7.585937v-14.664063h311.328124c4.191407 0 7.585938-3.394531 7.585938-7.585937 0-4.191407-3.394531-7.585938-7.585938-7.585938h-377.214843c-18.667969 0-33.855469 15.1875-33.855469 33.855469v46.179687c0 7.414063 3.355469 14.355469 9.207031 19.042969 29.945313 23.992187 29.894531 69.417969.003907 93.363281-5.855469 4.6875-9.210938 11.632813-9.210938 19.046875v31.6875c0 4.191407 3.394531 7.585938 7.585938 7.585938zm0 0" data-original="#000000" class="active-path" data-old_color="#HTTPS:" fill="#9736FD"/><path d="m92.15625 210.367188c-4.191406 0-7.585938 3.394531-7.585938 7.585937v22.25c0 4.191406 3.394532 7.585937 7.585938 7.585937s7.585938-3.394531 7.585938-7.585937v-22.25c0-4.191406-3.394532-7.585937-7.585938-7.585937zm0 0" data-original="#000000" class="active-path" data-old_color="#HTTPS:" fill="#9736FD"/><path d="m99.742188 165.359375c0-4.1875-3.394532-7.582031-7.585938-7.582031s-7.585938 3.394531-7.585938 7.582031v22.25c0 4.191406 3.394532 7.585937 7.585938 7.585937s7.585938-3.394531 7.585938-7.585937zm0 0" data-original="#000000" class="active-path" data-old_color="#HTTPS:" fill="#9736FD"/><path d="m99.742188 112.769531c0-4.191406-3.394532-7.585937-7.585938-7.585937s-7.585938 3.394531-7.585938 7.585937v22.25c0 4.191407 3.394532 7.585938 7.585938 7.585938s7.585938-3.394531 7.585938-7.585938zm0 0" data-original="#000000" class="active-path" data-old_color="#HTTPS:" fill="#9736FD"/><path d="m99.742188 60.175781c0-4.1875-3.394532-7.582031-7.585938-7.582031s-7.585938 3.394531-7.585938 7.582031v22.253907c0 4.1875 3.394532 7.582031 7.585938 7.582031s7.585938-3.394531 7.585938-7.582031zm0 0" data-original="#000000" class="active-path" data-old_color="#HTTPS:" fill="#9736FD"/><path d="m173.796875 45c14.519531 0 16.210937 10.152344 16.492187 15.085938.140626 3.382812 2.960938 4.933593 7.472657 4.933593 5.074219 0 7.46875-1.410156 7.46875-7.753906 0-14.941406-12.683594-25.515625-31.996094-25.515625-17.054687 0-31.292969 8.597656-31.292969 31.433594v41.019531c0 22.835937 14.097656 31.433594 31.152344 31.433594 19.3125 0 32.136719-10.851563 32.136719-26.359375 0-6.203125-2.394531-7.75-7.609375-7.75-4.089844 0-7.050782 1.269531-7.332032 4.933594-.5625 6.199218-1.832031 15.925781-16.207031 15.925781-11.136719 0-17.199219-5.777344-17.199219-18.183594v-41.019531c0-12.402344 6.058594-18.183594 16.914063-18.183594zm0 0" data-original="#000000" class="active-path" data-old_color="#HTTPS:" fill="#9736FD"/><path d="m226.371094 131.691406 5.78125-20.015625h34.816406l5.78125 20.015625c.703125 2.257813 2.675781 3.101563 5.074219 3.101563 4.226562 0 9.445312-2.679688 9.445312-6.203125 0-.421875-.144531-.84375-.285156-1.269532l-27.910156-91.339843c-2.222657-6.667969-16.734375-6.875-19.027344 0-30.21875 98.402343-28.191406 91.40625-28.191406 92.609375-.003907 5.570312 12.65625 9.0625 14.515625 3.101562zm23.117187-80.347656 14.097657 48.351562h-28.191407zm0 0" data-original="#000000" class="active-path" data-old_color="#HTTPS:" fill="#9736FD"/><path d="m323.773438 122.390625c-15.644532 0-19.027344-11.136719-24.101563-11.136719-3.523437 0-6.484375 4.652344-6.484375 8.035156 0 7.046876 12.824219 16.632813 31.152344 16.632813 18.605468 0 32.136718-9.871094 32.136718-30.027344 0-37.496093-45.8125-28.050781-45.8125-48.910156 0-8.882813 7.332032-12.828125 17.621094-12.828125 11.980469 0 15.648438 5.355469 19.453125 5.355469 4.226563 0 6.203125-5.214844 6.203125-8.035157 0-7.75-16.492187-10.148437-25.65625-10.148437-15.082031 0-32.5625 6.203125-32.5625 27.0625 0 33.832031 45.8125 24.105469 45.8125 49.058594 0 10.144531-7.613281 14.941406-17.761718 14.941406zm0 0" data-original="#000000" class="active-path" data-old_color="#HTTPS:" fill="#9736FD"/><path d="m385.515625 36.542969c0-6.464844-14.945313-6.410157-14.945313 0v93.316406c0 3.242187 3.808594 4.933594 7.472657 4.933594 3.808593 0 7.472656-1.691407 7.472656-4.933594v-42.570313h35.097656v42.570313c0 3.242187 3.804688 4.933594 7.472657 4.933594 3.804687 0 7.46875-1.691407 7.46875-4.933594v-93.316406c0-3.382813-3.664063-4.789063-7.46875-4.789063-3.667969 0-7.472657 1.410156-7.472657 4.789063v38.90625h-35.097656zm0 0" data-original="#000000" class="active-path" data-old_color="#HTTPS:" fill="#9736FD"/><path d="m149.550781 264.777344h28.617188c15.785156 0 28.050781-7.753906 28.050781-29.601563 0-12.941406-1.984375-21.363281-14.519531-26.21875 7.328125-3.242187 11.980469-11.136719 11.980469-22.835937 0-19.875-13.390626-24.382813-28.472657-24.382813h-25.65625c-3.382812 0-6.625 1.691407-6.625 4.933594v93.316406c0 2.535157 2.539063 4.789063 6.625 4.789063zm8.175781-89.792969h16.492188c8.882812 0 14.519531 4.089844 14.519531 13.535156 0 9.585938-4.652343 14.515625-14.238281 14.515625h-16.773438zm0 39.894531h17.621094c10.007813 0 15.929688 4.511719 15.929688 16.914063v2.253906c0 12.125-5.921875 17.480469-15.929688 17.480469h-17.621094zm0 0" data-original="#000000" class="active-path" data-old_color="#HTTPS:" fill="#9736FD"/><path d="m228.066406 261.675781 5.777344-20.015625h34.816406l5.78125 20.015625c2 6.402344 16.324219 1.886719 14.234375-4.367187l-27.90625-91.34375c-2.226562-6.667969-16.738281-6.875-19.03125 0-30.21875 98.402344-28.191406 91.410156-28.191406 92.609375 0 5.570312 12.65625 9.0625 14.519531 3.101562zm23.117188-80.34375 14.09375 48.347657h-28.191406zm0 0" data-original="#000000" class="active-path" data-old_color="#HTTPS:" fill="#9736FD"/><path d="m330.964844 174.984375c14.519531 0 16.210937 10.152344 16.492187 15.085937.140625 3.382813 2.960938 4.933594 7.472657 4.933594 5.074218 0 7.46875-1.410156 7.46875-7.753906 0-14.941406-12.6875-25.515625-31.996094-25.515625-17.058594 0-31.292969 8.597656-31.292969 31.433594v41.019531c0 22.835938 14.09375 31.433594 31.152344 31.433594 19.3125 0 32.136719-10.851563 32.136719-26.359375 0-6.203125-2.394532-7.75-7.609376-7.75-4.089843 0-7.050781 1.265625-7.332031 4.933593-.5625 6.199219-1.832031 15.925782-16.210937 15.925782-11.132813 0-17.195313-5.777344-17.195313-18.183594v-41.019531c0-12.402344 6.058594-18.183594 16.914063-18.183594zm0 0" data-original="#000000" class="active-path" data-old_color="#HTTPS:" fill="#9736FD"/><path d="m425.6875 163.851562-34.394531 45.53125v-42.851562c0-6.46875-14.941407-6.414062-14.941407 0v93.316406c0 6.515625 14.941407 6.609375 14.941407 0v-29.460937l9.160156-11.558594 28.757813 43.554687c4.59375 7.148438 17.5-.804687 13.25-7.1875l-32.136719-48.914062 27.0625-33.832031c4.933593-5.757813-7.652344-14.960938-11.699219-8.597657zm0 0" data-original="#000000" class="active-path" data-old_color="#HTTPS:" fill="#9736FD"/></g> </svg>
